<svg version="1.0" xmlns="http://www.w3.org/2000/svg"
 width="300.000000pt" height="300.000000pt" viewBox="0 0 300.000000 300.000000"
 preserveAspectRatio="xMidYMid meet">
<g transform="translate(0.000000,300.000000) scale(0.100000,-0.100000)"
fill="#000000" stroke="none">
<path d="M0 1500 l0 -1500 1500 0 1500 0 0 1500 0 1500 -1500 0 -1500 0 0
-1500z m2102 813 c10 -9 18 -30 18 -47 0 -28 -73 -104 -677 -708 -588 -588
-682 -678 -707 -678 -39 0 -66 26 -66 64 0 27 74 105 677 708 589 589 682 678
707 678 16 0 38 -7 48 -17z m146 -770 c6 -9 12 -31 12 -47 0 -27 -45 -75 -363
-393 -318 -318 -366 -363 -393 -363 -41 0 -62 18 -70 58 -7 33 -2 38 364 404
366 366 371 371 404 364 18 -3 39 -14 46 -23z"/>
</g>
</svg>
